<svg width="493" height="458" viewBox="0 0 493 458" fill="none" xmlns="http://www.w3.org/2000/svg">
<path d="M247.736 49.4033C258.357 51.241 261.808 54.4605 269.492 62.9033C301.693 118.669 393.288 344.576 393.949 363.519C393.972 364.348 393.93 365.097 393.949 365.483C394.451 375.789 390.508 384.856 386.412 388.06C379.597 393.641 375.294 395.68 366.314 396.403C348.027 396.052 321.613 386.722 263.815 364.01L244.722 351.249L226.131 364.01C165.457 387.218 141.522 394.92 123.129 395.913C114.007 395.422 109.85 393.353 103.031 388.55C98.0881 384.162 96.4631 379.378 94.9922 367.937C133.212 239.058 158.885 173.32 220.492 61.9033C228.453 53.2887 235.84 51.0506 247.736 49.4033Z" fill="#0098FF"/>
<path d="M390.006 110.303C396.109 119.187 396.216 123.905 395.542 135.302C378.128 197.297 280.451 420.642 267.357 434.347C266.78 434.943 266.215 435.436 265.952 435.718C258.927 443.277 249.685 446.789 244.531 446.095C235.777 445.117 231.312 443.462 224.522 437.541C211.999 424.21 200.225 398.791 176.105 341.566L171.9 318.989L149.783 314.6C90.7939 287.393 68.5631 275.645 55.0053 263.176C48.9843 256.306 47.5612 251.886 46.2349 243.652C45.9221 237.049 48.2109 232.544 55.3707 223.5C174.293 160.826 239.268 133.279 362.031 99.5388C373.756 99.2178 380.518 102.941 390.006 110.303Z" fill="#2FABFF" fill-opacity="0.8"/>
<path d="M108.782 102.671C117.635 96.5241 122.353 96.3945 133.753 97.0128C195.833 114.124 419.651 210.711 433.419 223.738C434.018 224.312 434.514 224.875 434.797 225.136C442.391 232.124 445.947 241.349 445.279 246.506C444.343 255.265 442.71 259.738 436.823 266.557C423.553 279.144 398.192 291.042 341.085 315.441L318.529 319.756L314.247 341.895C287.328 401.016 275.689 423.303 263.287 436.922C256.445 442.976 252.033 444.421 243.805 445.787C237.204 446.132 232.688 443.866 223.609 436.75C160.356 318.135 132.492 253.295 98.1537 130.698C97.7756 118.975 101.466 112.195 108.782 102.671Z" fill="white" fill-opacity="0.5"/>
<mask id="path-4-outside-1_351_79" maskUnits="userSpaceOnUse" x="41" y="43" width="410" height="408" fill="black">
<rect fill="white" x="41" y="43" width="410" height="408"/>
<path d="M247.53 49C258.15 50.8377 261.601 54.0572 269.286 62.5C276.195 74.4658 285.837 94.2658 296.73 118.173C316.826 111.861 338.26 105.612 361.824 99.1357C373.549 98.8148 380.311 102.538 389.799 109.9C395.902 118.784 396.009 123.502 395.335 134.898C391.587 148.241 384.12 169.057 374.579 193.649C406.255 208.102 429.1 219.445 433.212 223.335C433.811 223.908 434.306 224.471 434.59 224.732C442.183 231.72 445.74 240.946 445.072 246.103C444.136 254.861 442.503 259.334 436.616 266.153C426.144 276.087 408.141 285.589 372.95 301.146C385.293 333.508 393.545 357.478 393.742 363.116C393.765 363.945 393.723 364.694 393.742 365.079C394.244 375.386 390.301 384.453 386.205 387.656C379.39 393.237 375.087 395.277 366.107 396C351.876 395.727 332.724 390.016 297.689 376.792C289.647 393.724 283.348 406.09 277.856 415.535C272.812 425.404 269.071 431.932 267.15 433.943C266.573 434.539 266.008 435.032 265.745 435.314C258.721 442.874 249.478 446.385 244.325 445.691C243.554 445.605 242.816 445.513 242.107 445.414C239.194 445.382 236.616 444.758 233.721 443.323C230.609 442.047 227.761 440.142 224.315 437.138C224.223 437.04 224.133 436.941 224.041 436.842C223.831 436.679 223.617 436.515 223.402 436.347C223.312 436.178 223.221 436.009 223.131 435.84C213.99 425.509 205.03 408.366 191.112 376.681C155.062 389.857 137.3 394.733 122.922 395.509C113.8 395.018 109.643 392.95 102.825 388.147C97.8813 383.759 96.2564 378.974 94.7855 367.533C102.242 342.389 109.222 319.649 116.083 298.504C81.3486 281.857 65.4143 272.536 54.7982 262.772C48.7774 255.902 47.3539 251.482 46.0277 243.248C45.715 236.646 48.004 232.141 55.1635 223.097C77.1012 211.535 97.2037 201.169 116.171 191.739C110.144 172.704 104.15 152.442 97.9467 130.295C97.5686 118.572 101.259 111.792 108.575 102.268C117.428 96.121 122.146 95.9912 133.545 96.6094C146.638 100.218 166.924 107.363 190.916 116.513C199.775 99.1895 209.477 81.0476 220.286 61.5C228.246 52.8855 235.634 50.6473 247.53 49Z"/>
</mask>
<path d="M247.53 49L248.382 44.0732L247.615 43.9405L246.844 44.0473L247.53 49ZM269.286 62.5L273.616 59.9998L273.346 59.533L272.983 59.1344L269.286 62.5ZM296.73 118.173L292.18 120.246L294.012 124.267L298.228 122.943L296.73 118.173ZM361.824 99.1357L361.687 94.1376L361.082 94.1542L360.499 94.3145L361.824 99.1357ZM389.799 109.9L393.92 107.069L393.479 106.427L392.864 105.95L389.799 109.9ZM395.335 134.898L400.149 136.251L400.295 135.732L400.327 135.194L395.335 134.898ZM374.579 193.649L369.918 191.841L368.211 196.24L372.504 198.198L374.579 193.649ZM433.212 223.335L436.672 219.725L436.66 219.714L436.649 219.703L433.212 223.335ZM434.59 224.732L431.204 228.411L431.204 228.412L434.59 224.732ZM445.072 246.103L440.113 245.46L440.106 245.515L440.1 245.571L445.072 246.103ZM436.616 266.153L440.057 269.781L440.237 269.609L440.4 269.421L436.616 266.153ZM372.95 301.146L370.928 296.573L366.586 298.493L368.278 302.928L372.95 301.146ZM393.742 363.116L398.74 362.974L398.739 362.958L398.739 362.942L393.742 363.116ZM393.742 365.079L388.747 365.322V365.323L393.742 365.079ZM386.205 387.656L383.125 383.718L383.081 383.752L383.038 383.788L386.205 387.656ZM366.107 396L366.011 400.999L366.26 401.004L366.508 400.984L366.107 396ZM297.689 376.792L299.454 372.114L295.147 370.488L293.172 374.647L297.689 376.792ZM277.856 415.535L273.533 413.022L273.465 413.139L273.404 413.26L277.856 415.535ZM267.15 433.943L270.743 437.42L270.754 437.409L270.765 437.397L267.15 433.943ZM265.745 435.314L262.083 431.91L262.083 431.911L265.745 435.314ZM244.325 445.691L244.992 440.736L244.936 440.729L244.88 440.722L244.325 445.691ZM242.107 445.414L242.799 440.462L242.482 440.418L242.163 440.414L242.107 445.414ZM233.721 443.323L235.941 438.843L235.782 438.764L235.618 438.697L233.721 443.323ZM224.315 437.138L220.67 440.561L220.841 440.743L221.029 440.906L224.315 437.138ZM224.041 436.842L227.71 433.444L227.432 433.144L227.109 432.893L224.041 436.842ZM223.402 436.347L218.99 438.699L219.487 439.631L220.317 440.282L223.402 436.347ZM223.131 435.84L227.543 433.488L227.266 432.968L226.876 432.526L223.131 435.84ZM191.112 376.681L195.69 374.67L193.802 370.374L189.395 371.985L191.112 376.681ZM122.922 395.509L122.654 400.502L122.923 400.516L123.192 400.502L122.922 395.509ZM102.825 388.147L99.5053 391.887L99.7155 392.073L99.9454 392.235L102.825 388.147ZM94.7855 367.533L89.9919 366.112L89.6917 367.124L89.8263 368.171L94.7855 367.533ZM116.083 298.504L120.839 300.047L122.19 295.886L118.244 293.995L116.083 298.504ZM54.7982 262.772L51.0378 266.068L51.2153 266.27L51.4135 266.453L54.7982 262.772ZM46.0277 243.248L41.0333 243.485L41.0466 243.765L41.0913 244.043L46.0277 243.248ZM55.1635 223.097L52.8323 218.673L51.8984 219.166L51.2432 219.993L55.1635 223.097ZM116.171 191.739L118.397 196.216L122.23 194.311L120.938 190.23L116.171 191.739ZM97.9467 130.295L92.9493 130.456L92.9688 131.061L93.132 131.643L97.9467 130.295ZM108.575 102.268L105.723 98.1604L105.084 98.6043L104.609 99.2218L108.575 102.268ZM133.545 96.6094L134.874 91.7891L134.354 91.6459L133.816 91.6167L133.545 96.6094ZM190.916 116.513L189.135 121.185L193.326 122.783L195.368 118.789L190.916 116.513ZM220.286 61.5L216.613 58.1066L216.203 58.551L215.91 59.0805L220.286 61.5ZM247.53 49L246.677 53.9268C251.561 54.7719 254.355 55.8547 256.745 57.4398C259.3 59.1345 261.69 61.5828 265.588 65.8656L269.286 62.5L272.983 59.1344C269.197 54.9744 266.019 51.5916 262.272 49.1064C258.36 46.5116 254.118 45.0658 248.382 44.0732L247.53 49ZM269.286 62.5L264.956 65.0002C271.734 76.7396 281.291 96.3477 292.18 120.246L296.73 118.173L301.28 116.1C290.383 92.1839 280.656 72.1919 273.616 59.9998L269.286 62.5ZM296.73 118.173L298.228 122.943C318.255 116.653 339.63 110.421 363.149 103.957L361.824 99.1357L360.499 94.3145C336.89 100.803 315.397 107.069 295.232 113.403L296.73 118.173ZM361.824 99.1357L361.96 104.134C367.209 103.99 371.116 104.746 374.726 106.252C378.438 107.8 382.077 110.237 386.734 113.851L389.799 109.9L392.864 105.95C388.034 102.202 383.547 99.0959 378.575 97.0222C373.5 94.9055 368.163 93.9603 361.687 94.1376L361.824 99.1357ZM389.799 109.9L385.678 112.732C388.485 116.817 389.661 119.573 390.196 122.39C390.768 125.402 390.686 128.822 390.344 134.603L395.335 134.898L400.327 135.194C400.659 129.578 400.86 124.941 400.021 120.524C399.145 115.912 397.217 111.867 393.92 107.069L389.799 109.9ZM395.335 134.898L390.522 133.546C386.845 146.637 379.455 167.258 369.918 191.841L374.579 193.649L379.241 195.458C388.785 170.857 396.33 149.846 400.149 136.251L395.335 134.898ZM374.579 193.649L372.504 198.198C388.316 205.413 401.881 211.831 411.984 216.919C417.039 219.465 421.184 221.655 424.291 223.429C427.565 225.3 429.248 226.467 429.776 226.967L433.212 223.335L436.649 219.703C435.121 218.258 432.406 216.548 429.251 214.746C425.928 212.848 421.61 210.57 416.481 207.987C406.215 202.818 392.519 196.339 376.655 189.101L374.579 193.649ZM433.212 223.335L429.753 226.945C429.967 227.15 430.176 227.366 430.405 227.606C430.509 227.714 430.639 227.851 430.755 227.97C430.865 228.084 431.027 228.249 431.204 228.411L434.59 224.732L437.977 221.054C438.011 221.086 438.005 221.082 437.924 220.999C437.848 220.921 437.764 220.832 437.634 220.696C437.394 220.445 437.056 220.093 436.672 219.725L433.212 223.335ZM434.59 224.732L431.204 228.412C434.495 231.44 436.896 234.945 438.385 238.189C439.93 241.557 440.281 244.165 440.113 245.46L445.072 246.103L450.03 246.745C450.531 242.884 449.438 238.301 447.474 234.019C445.453 229.614 442.279 225.013 437.976 221.053L434.59 224.732ZM445.072 246.103L440.1 245.571C439.652 249.761 439.074 252.528 438.077 254.953C437.09 257.351 435.569 259.715 432.831 262.886L436.616 266.153L440.4 269.421C443.55 265.773 445.789 262.491 447.325 258.758C448.849 255.052 449.555 251.202 450.043 246.634L445.072 246.103ZM436.616 266.153L433.175 262.526C423.442 271.758 406.285 280.943 370.928 296.573L372.95 301.146L374.971 305.72C409.997 290.236 428.846 280.415 440.057 269.781L436.616 266.153ZM372.95 301.146L368.278 302.928C374.439 319.082 379.563 333.098 383.164 343.754C384.966 349.086 386.371 353.53 387.331 356.956C388.344 360.566 388.719 362.567 388.745 363.291L393.742 363.116L398.739 362.942C398.665 360.846 397.936 357.737 396.96 354.256C395.932 350.591 394.466 345.962 392.637 340.552C388.977 329.723 383.803 315.572 377.621 299.365L372.95 301.146ZM393.742 363.116L388.744 363.259C388.752 363.555 388.749 363.855 388.744 364.186C388.742 364.336 388.738 364.526 388.737 364.691C388.736 364.85 388.736 365.082 388.747 365.322L393.742 365.079L398.736 364.836C398.738 364.884 398.736 364.878 398.737 364.762C398.738 364.652 398.74 364.531 398.743 364.342C398.748 363.995 398.755 363.507 398.74 362.974L393.742 363.116ZM393.742 365.079L388.747 365.323C388.965 369.789 388.215 373.971 386.998 377.326C385.734 380.809 384.154 382.913 383.125 383.718L386.205 387.656L389.286 391.595C392.353 389.196 394.792 385.165 396.398 380.737C398.051 376.181 399.02 370.676 398.736 364.836L393.742 365.079ZM386.205 387.656L383.038 383.788C379.777 386.458 377.424 388.022 375.01 389.049C372.625 390.064 369.881 390.68 365.705 391.016L366.107 396L366.508 400.984C371.313 400.597 375.211 399.831 378.926 398.251C382.613 396.682 385.818 394.436 389.373 391.525L386.205 387.656ZM366.107 396L366.203 391.001C352.983 390.747 334.645 385.397 299.454 372.114L297.689 376.792L295.923 381.47C330.802 394.634 350.769 400.707 366.011 400.999L366.107 396ZM297.689 376.792L293.172 374.647C285.15 391.539 278.92 403.758 273.533 413.022L277.856 415.535L282.178 418.048C287.775 408.422 294.145 395.908 302.205 378.937L297.689 376.792ZM277.856 415.535L273.404 413.26C270.9 418.158 268.749 422.17 267.006 425.179C265.168 428.352 264.024 429.977 263.535 430.489L267.15 433.943L270.765 437.397C272.197 435.898 273.885 433.254 275.658 430.192C277.527 426.968 279.767 422.781 282.308 417.811L277.856 415.535ZM267.15 433.943L263.557 430.466C263.351 430.679 263.134 430.887 262.893 431.115C262.784 431.218 262.646 431.348 262.527 431.463C262.413 431.573 262.247 431.734 262.083 431.91L265.745 435.314L269.408 438.719C269.376 438.753 269.379 438.747 269.463 438.667C269.541 438.591 269.63 438.508 269.767 438.378C270.019 438.139 270.373 437.803 270.743 437.42L267.15 433.943ZM265.745 435.314L262.083 431.911C259.039 435.186 255.522 437.57 252.27 439.043C248.896 440.572 246.286 440.91 244.992 440.736L244.325 445.691L243.658 450.647C247.517 451.166 252.105 450.096 256.396 448.152C260.811 446.153 265.427 443.002 269.408 438.718L265.745 435.314ZM244.325 445.691L244.88 440.722C244.149 440.641 243.458 440.554 242.799 440.462L242.107 445.414L241.415 450.366C242.174 450.472 242.958 450.57 243.769 450.66L244.325 445.691ZM242.107 445.414L242.163 440.414C240.049 440.391 238.207 439.966 235.941 438.843L233.721 443.323L231.501 447.803C235.025 449.55 238.339 450.372 242.051 450.414L242.107 445.414ZM233.721 443.323L235.618 438.697C233.185 437.699 230.803 436.161 227.601 433.369L224.315 437.138L221.029 440.906C224.719 444.124 228.032 446.394 231.824 447.949L233.721 443.323ZM224.315 437.138L227.959 433.714C227.876 433.626 227.856 433.602 227.71 433.444L224.041 436.842L220.373 440.239C220.41 440.279 220.571 440.455 220.67 440.561L224.315 437.138ZM224.041 436.842L227.109 432.893C226.833 432.679 226.706 432.583 226.486 432.411L223.402 436.347L220.317 440.282C220.528 440.447 220.83 440.678 220.974 440.791L224.041 436.842ZM223.402 436.347L227.814 433.994C227.712 433.803 227.641 433.671 227.543 433.488L223.131 435.84L218.719 438.192C218.801 438.346 218.911 438.552 218.99 438.699L223.402 436.347ZM223.131 435.84L226.876 432.526C218.336 422.875 209.656 406.466 195.69 374.67L191.112 376.681L186.534 378.691C200.403 410.266 209.644 428.143 219.387 439.153L223.131 435.84ZM191.112 376.681L189.395 371.985C153.293 385.18 136.187 389.786 122.653 390.516L122.922 395.509L123.192 400.502C138.413 399.681 156.832 394.533 192.828 381.377L191.112 376.681ZM122.922 395.509L123.191 390.516C118.98 390.29 116.217 389.716 113.821 388.785C111.374 387.833 109.033 386.405 105.704 384.06L102.825 388.147L99.9454 392.235C103.435 394.693 106.582 396.699 110.198 398.105C113.866 399.531 117.742 400.237 122.654 400.502L122.922 395.509ZM102.825 388.147L106.144 384.408C102.649 381.306 101.191 378.145 99.7447 366.896L94.7855 367.533L89.8263 368.171C91.3219 379.803 93.1136 386.213 99.5053 391.887L102.825 388.147ZM94.7855 367.533L99.5792 368.955C107.028 343.837 113.995 321.14 120.839 300.047L116.083 298.504L111.327 296.961C104.449 318.159 97.4562 340.942 89.9919 366.112L94.7855 367.533ZM116.083 298.504L118.244 293.995C83.457 277.323 68.1764 268.283 58.1829 259.092L54.7982 262.772L51.4135 266.453C62.6522 276.789 79.2401 286.391 113.922 303.013L116.083 298.504ZM54.7982 262.772L58.5586 259.477C55.7797 256.306 54.2598 253.928 53.2529 251.563C52.2243 249.147 51.6117 246.474 50.9641 242.453L46.0277 243.248L41.0913 244.043C41.77 248.257 42.5322 251.91 44.0521 255.48C45.5937 259.101 47.796 262.369 51.0378 266.068L54.7982 262.772ZM46.0277 243.248L51.0221 243.011C50.801 238.344 52.0442 235.093 59.0838 226.2L55.1635 223.097L51.2432 219.993C43.9639 229.189 40.629 234.948 41.0333 243.485L46.0277 243.248ZM55.1635 223.097L57.4946 227.52C79.4096 215.971 99.4754 205.624 118.397 196.216L116.171 191.739L113.945 187.262C94.9321 196.715 74.7928 207.1 52.8323 218.673L55.1635 223.097ZM116.171 191.739L120.938 190.23C114.931 171.259 108.953 151.051 102.761 128.946L97.9467 130.295L93.132 131.643C99.3471 153.833 105.357 174.15 111.405 193.249L116.171 191.739ZM97.9467 130.295L102.944 130.134C102.775 124.886 103.512 120.975 105 117.359C106.53 113.639 108.949 109.988 112.54 105.313L108.575 102.268L104.609 99.2218C100.885 104.071 97.8009 108.572 95.7514 113.554C93.6595 118.64 92.7404 123.981 92.9493 130.456L97.9467 130.295ZM108.575 102.268L111.426 106.375C115.498 103.548 118.247 102.358 121.062 101.809C124.071 101.223 127.492 101.288 133.275 101.602L133.545 96.6094L133.816 91.6167C128.199 91.3121 123.561 91.1337 119.148 91.9941C114.541 92.8923 110.505 94.8405 105.723 98.1604L108.575 102.268ZM133.545 96.6094L132.217 101.43C145.06 104.97 165.153 112.039 189.135 121.185L190.916 116.513L192.698 111.841C168.695 102.688 148.216 95.4665 134.874 91.7891L133.545 96.6094ZM190.916 116.513L195.368 118.789C204.197 101.523 213.873 83.43 224.661 63.9195L220.286 61.5L215.91 59.0805C205.081 78.6653 195.352 96.8557 186.465 114.236L190.916 116.513ZM220.286 61.5L223.958 64.8934C227.521 61.0369 230.791 58.7693 234.39 57.238C238.091 55.663 242.376 54.7614 248.215 53.9527L247.53 49L246.844 44.0473C240.787 44.8859 235.431 45.927 230.474 48.0366C225.414 50.1898 221.01 53.3485 216.613 58.1066L220.286 61.5Z" fill="#0085CD" mask="url(#path-4-outside-1_351_79)"/>
</svg>
